<svg width="116" height="52" viewBox="0 0 116 52" fill="none" xmlns="http://www.w3.org/2000/svg">
<path d="M102.174 18.3622V17.0925H100.579V18.3622L102.182 19.3065L102.174 18.3622Z" fill="#1F1F1F"/>
<path d="M59.0255 17.3228H61.0313L69.4415 30.3049H67.4752L59.0255 17.3228Z" fill="#1F1F1F"/>
<path d="M69.1887 17.3228H67.1829L58.7726 30.3049H60.739L69.1887 17.3228Z" fill="#1F1F1F"/>
<path d="M114.841 22.1398L113.53 22.9333L113.245 22.6C112.534 21.783 111.541 21.2662 110.466 21.1529C109.392 21.0396 108.314 21.3382 107.449 21.989C106.885 22.4398 106.461 23.0425 106.225 23.7266C105.989 24.4108 105.952 25.1483 106.117 25.853C106.283 26.5577 106.645 27.2005 107.16 27.7064C107.675 28.2123 108.324 28.5605 109.029 28.7102C109.805 28.9079 110.622 28.8761 111.382 28.6185C112.141 28.3609 112.81 27.8885 113.309 27.258L113.506 27.0358C113.917 27.3136 114.296 27.5754 114.825 27.9008C114.505 28.299 114.165 28.6804 113.806 29.0435C111.895 30.7258 107.907 30.9321 105.759 28.5832C105.156 27.9019 104.736 27.0771 104.538 26.1869C104.341 25.2967 104.373 24.3706 104.632 23.4964C104.891 22.6222 105.367 21.8289 106.016 21.1915C106.665 20.5542 107.466 20.0939 108.341 19.8544C109.817 19.4298 111.397 19.5653 112.78 20.2353C113.536 20.5766 114.179 21.1271 114.635 21.8223C114.7 21.9047 114.771 21.9817 114.849 22.0525L114.841 22.1398Z" fill="#1F1F1F"/>
<path d="M80.0297 27.0592L81.3169 27.9083C81.0698 28.2287 80.8062 28.5359 80.5272 28.8288C79.6981 29.6292 78.6237 30.1243 77.479 30.2333C76.4764 30.4347 75.4382 30.3596 74.4747 30.0159C73.5112 29.6722 72.6582 29.0728 72.0064 28.2812C71.4454 27.5607 71.0773 26.7078 70.9374 25.8038C70.7975 24.8998 70.8903 23.9748 71.207 23.1171C71.5237 22.2594 72.0538 21.4975 72.7467 20.904C73.4396 20.3106 74.2722 19.9053 75.1652 19.727C76.6229 19.403 78.1476 19.6082 79.469 20.3062C80.2492 20.7091 80.8844 21.3474 81.2853 22.1314L80.0139 22.9249L79.7296 22.5837C78.9892 21.7368 77.9485 21.2145 76.83 21.1285C75.7114 21.0425 74.6038 21.3996 73.7437 22.1234C73.1773 22.6295 72.7778 23.2971 72.5986 24.0372C72.4194 24.7772 72.469 25.5546 72.7408 26.2656C72.9978 26.9973 73.4683 27.634 74.091 28.0927C74.7137 28.5514 75.4596 28.8107 76.2313 28.8367C76.9627 28.8901 77.6955 28.7549 78.3603 28.4438C79.0251 28.1327 79.5997 27.6561 80.0297 27.0592Z" fill="#1F1F1F"/>
<path d="M85.0761 20.1003H83.5125V30.2813H85.0761V20.1003Z" fill="#1F1F1F"/>
<path d="M102.182 20.1082H100.602V30.2892H102.182V20.1082Z" fill="#1F1F1F"/>
<path d="M83.4816 17.0925H85.0609V19.3065C84.5239 18.9811 84.0343 18.6955 83.5526 18.3781C83.4895 18.3781 83.4658 18.2193 83.4658 18.1321C83.4658 17.7988 83.4658 17.4734 83.4658 17.0925" fill="#1F1F1F"/>
<path d="M85.0743 18.3617V17.092H83.4791V18.3617L85.0821 19.306L85.0743 18.3617Z" fill="#1F1F1F"/>
<path d="M98.1622 16.5527V16.0369H96.5433V16.4892C96.5433 17.6636 96.5433 18.8698 96.5433 20.0204V21.2107L96.1406 20.8615C95.5525 20.3299 94.8464 19.9474 94.0812 19.7458C93.316 19.5443 92.514 19.5296 91.742 19.703C91.0486 19.8537 90.392 20.1418 89.8107 20.5505C89.2293 20.9591 88.7349 21.4801 88.3562 22.083C87.9776 22.6858 87.7223 23.3585 87.6054 24.0617C87.4884 24.7648 87.5121 25.4843 87.6751 26.1782C87.9609 27.4949 88.7365 28.6521 89.8433 29.4133C90.9501 30.1744 92.3044 30.4818 93.6294 30.2728C94.9054 30.1481 96.0853 29.5362 96.9257 28.5633C97.7661 27.5903 98.203 26.3305 98.1464 25.0434C98.1464 22.2105 98.1464 19.3856 98.1464 16.5527H98.1622ZM92.9107 28.7413C91.9343 28.6965 91.0127 28.2753 90.3375 27.5651C89.6622 26.8549 89.2855 25.9106 89.2855 24.9284C89.2855 23.9462 89.6622 23.0018 90.3375 22.2917C91.0127 21.5815 91.9343 21.1602 92.9107 21.1155C93.8872 21.1602 94.8088 21.5815 95.484 22.2917C96.1592 23.0018 96.536 23.9462 96.536 24.9284C96.536 25.9106 96.1592 26.8549 95.484 27.5651C94.8088 28.2753 93.8872 28.6965 92.9107 28.7413Z" fill="#1F1F1F"/>
<path d="M31.4719 14.4739V38.1925L35.0492 43.3346L58.7717 52L31.4719 14.4739Z" fill="#ED6D0F"/>
<path d="M28.0998 37.5261V13.8074L24.5225 8.66536L0.799988 0L28.0998 37.5261Z" fill="#E94E16"/>
<path d="M6.85718 45.1838L19.0264 25.0598L28.1 37.5262L23.9857 43.1523L6.85718 45.1838Z" fill="#C31322"/>
<path d="M54.0019 5.08643L40.5455 26.9641L31.4719 14.4977L35.5862 8.87157L54.0019 5.08643Z" fill="#C31322"/>
<mask id="mask0_445_1145" style="mask-type:alpha" maskUnits="userSpaceOnUse" x="31" y="5" width="24" height="22">
<path d="M54.0019 5.08643L40.5455 26.9641L31.4719 14.4977L35.5862 8.87157L54.0019 5.08643Z" fill="#C31322"/>
</mask>
<g mask="url(#mask0_445_1145)">
<path d="M40.7421 -1.69829L21.7222 16.8811L40.2339 36.0161L59.2538 17.4368L40.7421 -1.69829Z" fill="url(#paint0_linear_445_1145)"/>
</g>
<mask id="mask1_445_1145" style="mask-type:alpha" maskUnits="userSpaceOnUse" x="6" y="25" width="23" height="21">
<path d="M6.85718 45.1838L19.0264 25.0598L28.1 37.5262L23.9857 43.1523L6.85718 45.1838Z" fill="#C31322"/>
</mask>
<g mask="url(#mask1_445_1145)">
<path d="M20.4217 17.123L2.93066 34.209L19.9726 51.8248L37.4637 34.7389L20.4217 17.123Z" fill="url(#paint1_linear_445_1145)"/>
</g>
<path d="M59.1499 39.486V37.9611H60.2177L60.9637 39.486H61.3724L60.5907 37.8995C61.0608 37.7712 61.3367 37.4015 61.3367 36.8727C61.3367 36.2206 60.8871 35.8099 60.1462 35.8099H58.782V39.486H59.1499ZM59.1499 36.1436H60.1462C60.6469 36.1436 60.9586 36.4055 60.9586 36.8829C60.9586 37.3502 60.6622 37.6274 60.1564 37.6274H59.1499V36.1436Z" fill="#1F1F1F"/>
<path d="M62.8311 39.5476C63.4136 39.5476 63.7968 39.2652 63.9296 38.7415H63.5924C63.5004 39.0701 63.2399 39.2447 62.8362 39.2447C62.3049 39.2447 61.9881 38.8955 61.9625 38.2897H63.9296V38.1151C63.9296 37.4118 63.4749 36.9343 62.8056 36.9343C62.1005 36.9343 61.6202 37.4682 61.6202 38.2435C61.6202 39.0239 62.1056 39.5476 62.8311 39.5476ZM62.8056 37.2372C63.2705 37.2372 63.5771 37.5555 63.5771 38.033H61.9728C62.0341 37.5452 62.3406 37.2372 62.8056 37.2372Z" fill="#1F1F1F"/>
<path d="M64.2838 38.7877C64.2838 39.2498 64.6312 39.5476 65.1882 39.5476C65.7502 39.5476 66.1283 39.2549 66.1283 38.8082C66.1283 38.4489 65.9341 38.2486 65.5049 38.1408L65.0809 38.033C64.8101 37.9662 64.6772 37.8328 64.6772 37.6428C64.6772 37.3758 64.8714 37.2269 65.2188 37.2269C65.5509 37.2269 65.7502 37.3964 65.7604 37.6839H66.1027C66.0874 37.2218 65.7502 36.9343 65.229 36.9343C64.6977 36.9343 64.3349 37.2115 64.3349 37.6479C64.3349 37.9868 64.5444 38.2127 64.9736 38.3205L65.3976 38.4283C65.6889 38.5002 65.7911 38.6183 65.7911 38.8237C65.7911 39.0906 65.5662 39.2549 65.183 39.2549C64.8356 39.2549 64.621 39.0752 64.621 38.7877H64.2838Z" fill="#1F1F1F"/>
<path d="M67.2758 39.486V37.2988H67.7714V37.001H67.2758V36.2155H66.9284V37.001H66.4328V37.2988H66.9284V39.486H67.2758Z" fill="#1F1F1F"/>
<path d="M69.7242 39.486L70.0818 38.5105H71.7679L72.1256 39.486H72.5088L71.1497 35.8099H70.6949L69.3512 39.486H69.7242ZM70.8738 36.3285C70.8942 36.2771 70.9146 36.2104 70.9198 36.1796C70.9249 36.2155 70.9504 36.2771 70.9657 36.3285L71.6504 38.187H70.1942L70.8738 36.3285Z" fill="#1F1F1F"/>
<path d="M72.7312 38.7877C72.7312 39.2498 73.0786 39.5476 73.6355 39.5476C74.1975 39.5476 74.5756 39.2549 74.5756 38.8082C74.5756 38.4489 74.3815 38.2486 73.9523 38.1408L73.5282 38.033C73.2574 37.9662 73.1246 37.8328 73.1246 37.6428C73.1246 37.3758 73.3187 37.2269 73.6662 37.2269C73.9983 37.2269 74.1975 37.3964 74.2078 37.6839H74.5501C74.5348 37.2218 74.1975 36.9343 73.6764 36.9343C73.145 36.9343 72.7823 37.2115 72.7823 37.6479C72.7823 37.9868 72.9917 38.2127 73.4209 38.3205L73.845 38.4283C74.1362 38.5002 74.2384 38.6183 74.2384 38.8237C74.2384 39.0906 74.0136 39.2549 73.6304 39.2549C73.283 39.2549 73.0684 39.0752 73.0684 38.7877H72.7312Z" fill="#1F1F1F"/>
<path d="M74.9465 38.7877C74.9465 39.2498 75.294 39.5476 75.8509 39.5476C76.4129 39.5476 76.791 39.2549 76.791 38.8082C76.791 38.4489 76.5969 38.2486 76.1677 38.1408L75.7436 38.033C75.4728 37.9662 75.34 37.8328 75.34 37.6428C75.34 37.3758 75.5341 37.2269 75.8816 37.2269C76.2137 37.2269 76.4129 37.3964 76.4231 37.6839H76.7655C76.7501 37.2218 76.4129 36.9343 75.8918 36.9343C75.3604 36.9343 74.9976 37.2115 74.9976 37.6479C74.9976 37.9868 75.2071 38.2127 75.6363 38.3205L76.0604 38.4283C76.3516 38.5002 76.4538 38.6183 76.4538 38.8237C76.4538 39.0906 76.229 39.2549 75.8458 39.2549C75.4984 39.2549 75.2838 39.0752 75.2838 38.7877H74.9465Z" fill="#1F1F1F"/>
<path d="M79.1086 37.001V38.3205C79.1086 38.9109 78.8276 39.2292 78.3524 39.2292C77.959 39.2292 77.6984 39.0187 77.6984 38.4283V36.9959H77.3407V38.5413C77.3407 39.1471 77.6575 39.5476 78.24 39.5476C78.6283 39.5476 78.9706 39.3525 79.1086 39.065L79.1546 39.486H79.4611V37.001H79.1086Z" fill="#1F1F1F"/>
<path d="M81.4882 36.9702C81.4013 36.9497 81.3349 36.9446 81.2582 36.9446C80.9108 36.9446 80.6502 37.1191 80.5532 37.3861L80.5276 37.001H80.1955V39.486H80.548V38.0689C80.548 37.5966 80.8393 37.2885 81.294 37.2885H81.4882V36.9702Z" fill="#1F1F1F"/>
<path d="M82.8992 39.5476C83.4817 39.5476 83.8649 39.2652 83.9977 38.7415H83.6605C83.5685 39.0701 83.308 39.2447 82.9043 39.2447C82.373 39.2447 82.0562 38.8955 82.0306 38.2897H83.9977V38.1151C83.9977 37.4118 83.543 36.9343 82.8737 36.9343C82.1686 36.9343 81.6883 37.4682 81.6883 38.2435C81.6883 39.0239 82.1737 39.5476 82.8992 39.5476ZM82.8737 37.2372C83.3386 37.2372 83.6452 37.5555 83.6452 38.033H82.0408C82.1022 37.5452 82.4087 37.2372 82.8737 37.2372Z" fill="#1F1F1F"/>
<path d="M85.5322 39.5476C85.946 39.5476 86.2935 39.3627 86.4672 38.9777L86.5029 39.486H86.8095V35.7432H86.457V37.4734C86.2832 37.114 85.9562 36.9343 85.5475 36.9343C84.8117 36.9343 84.3877 37.499 84.3877 38.2486C84.3877 38.9931 84.8117 39.5476 85.5322 39.5476ZM85.5935 39.2241C85.057 39.2241 84.7453 38.8134 84.7453 38.2384C84.7453 37.6685 85.057 37.2526 85.5935 37.2526C86.1351 37.2526 86.4518 37.6685 86.4518 38.2384C86.4518 38.8134 86.1351 39.2241 85.5935 39.2241Z" fill="#1F1F1F"/>
<path d="M87.8466 39.5424C88.0203 39.5424 88.1685 39.3987 88.1685 39.2292C88.1685 39.0547 88.0203 38.9058 87.8466 38.9058C87.6729 38.9058 87.5247 39.0547 87.5247 39.2292C87.5247 39.3987 87.6729 39.5424 87.8466 39.5424Z" fill="#1F1F1F"/>
<path d="M90.7439 35.8099H90.376V39.486H90.7439V35.8099Z" fill="#1F1F1F"/>
<path d="M92.1239 39.486V37.2988H92.6195V37.001H92.1239V36.2155H91.7765V37.001H91.2809V37.2988H91.7765V39.486H92.1239Z" fill="#1F1F1F"/>
<path d="M93.3949 36.0615C93.4153 35.8818 93.2927 35.7996 93.1854 35.7996C93.073 35.7996 92.9453 35.8818 92.9657 36.0615L93.0679 37.0832H93.2978L93.3949 36.0615Z" fill="#1F1F1F"/>
<path d="M93.6874 38.7877C93.6874 39.2498 94.0349 39.5476 94.5918 39.5476C95.1538 39.5476 95.5319 39.2549 95.5319 38.8082C95.5319 38.4489 95.3377 38.2486 94.9085 38.1408L94.4845 38.033C94.2137 37.9662 94.0808 37.8328 94.0808 37.6428C94.0808 37.3758 94.275 37.2269 94.6224 37.2269C94.9545 37.2269 95.1538 37.3964 95.164 37.6839H95.5063C95.491 37.2218 95.1538 36.9343 94.6326 36.9343C94.1013 36.9343 93.7385 37.2115 93.7385 37.6479C93.7385 37.9868 93.948 38.2127 94.3772 38.3205L94.8013 38.4283C95.0925 38.5002 95.1947 38.6183 95.1947 38.8237C95.1947 39.0906 94.9699 39.2549 94.5867 39.2549C94.2392 39.2549 94.0246 39.0752 94.0246 38.7877H93.6874Z" fill="#1F1F1F"/>
<path d="M97.3862 36.7649C97.3862 37.268 97.6877 37.5966 98.2599 37.7352L98.8782 37.8892C99.2716 37.9817 99.4555 38.1973 99.4555 38.5259C99.4555 38.9469 99.1132 39.2087 98.5767 39.2087C98.076 39.2087 97.7388 38.9571 97.7184 38.5721H97.3403C97.3862 39.1728 97.8665 39.5476 98.5767 39.5476C99.3329 39.5476 99.8234 39.142 99.8234 38.5053C99.8234 38.0073 99.5271 37.6787 98.9548 37.5401L98.3264 37.3861C97.9432 37.2885 97.7541 37.0832 97.7541 36.7597C97.7541 36.3439 98.0913 36.0769 98.6074 36.0769C99.0672 36.0769 99.3482 36.3131 99.3891 36.7289H99.7621C99.7059 36.1128 99.2716 35.7432 98.6125 35.7432C97.8767 35.7432 97.3862 36.1488 97.3862 36.7649Z" fill="#1F1F1F"/>
<path d="M101.445 39.5476C102.028 39.5476 102.411 39.2652 102.544 38.7415H102.207C102.115 39.0701 101.854 39.2447 101.451 39.2447C100.919 39.2447 100.602 38.8955 100.577 38.2897H102.544V38.1151C102.544 37.4118 102.089 36.9343 101.42 36.9343C100.715 36.9343 100.235 37.4682 100.235 38.2435C100.235 39.0239 100.72 39.5476 101.445 39.5476ZM101.42 37.2372C101.885 37.2372 102.191 37.5555 102.191 38.033H100.587C100.648 37.5452 100.955 37.2372 101.42 37.2372Z" fill="#1F1F1F"/>
<path d="M102.934 38.2486C102.934 39.029 103.409 39.5476 104.109 39.5476C104.671 39.5476 105.111 39.2138 105.228 38.7056H104.87C104.773 39.0239 104.477 39.2292 104.109 39.2292C103.608 39.2292 103.281 38.8339 103.281 38.2435C103.281 37.6325 103.634 37.2475 104.135 37.2475C104.477 37.2475 104.773 37.4374 104.865 37.7814H105.218C105.121 37.268 104.702 36.9343 104.13 36.9343C103.409 36.9343 102.934 37.4682 102.934 38.2486Z" fill="#1F1F1F"/>
<path d="M107.499 37.001V38.3205C107.499 38.9109 107.218 39.2292 106.743 39.2292C106.35 39.2292 106.089 39.0187 106.089 38.4283V36.9959H105.731V38.5413C105.731 39.1471 106.048 39.5476 106.631 39.5476C107.019 39.5476 107.361 39.3525 107.499 39.065L107.545 39.486H107.852V37.001H107.499Z" fill="#1F1F1F"/>
<path d="M109.879 36.9702C109.792 36.9497 109.726 36.9446 109.649 36.9446C109.302 36.9446 109.041 37.1191 108.944 37.3861L108.918 37.001H108.586V39.486H108.939V38.0689C108.939 37.5966 109.23 37.2885 109.685 37.2885H109.879V36.9702Z" fill="#1F1F1F"/>
<path d="M111.29 39.5476C111.872 39.5476 112.256 39.2652 112.388 38.7415H112.051C111.959 39.0701 111.699 39.2447 111.295 39.2447C110.764 39.2447 110.447 38.8955 110.421 38.2897H112.388V38.1151C112.388 37.4118 111.934 36.9343 111.264 36.9343C110.559 36.9343 110.079 37.4682 110.079 38.2435C110.079 39.0239 110.564 39.5476 111.29 39.5476ZM111.264 37.2372C111.729 37.2372 112.036 37.5555 112.036 38.033H110.432C110.493 37.5452 110.799 37.2372 111.264 37.2372Z" fill="#1F1F1F"/>
<path d="M113.923 39.5476C114.337 39.5476 114.684 39.3627 114.858 38.9777L114.894 39.486H115.2V35.7432H114.848V37.4734C114.674 37.114 114.347 36.9343 113.938 36.9343C113.202 36.9343 112.778 37.499 112.778 38.2486C112.778 38.9931 113.202 39.5476 113.923 39.5476ZM113.984 39.2241C113.448 39.2241 113.136 38.8134 113.136 38.2384C113.136 37.6685 113.448 37.2526 113.984 37.2526C114.526 37.2526 114.843 37.6685 114.843 38.2384C114.843 38.8134 114.526 39.2241 113.984 39.2241Z" fill="#1F1F1F"/>
<defs>
<linearGradient id="paint0_linear_445_1145" x1="62.6684" y1="-4.72798" x2="11.3761" y2="44.8932" gradientUnits="userSpaceOnUse">
<stop stop-color="#C01422"/>
<stop offset="0.31" stop-color="#C01422"/>
<stop offset="0.61" stop-color="#231F20"/>
<stop offset="1" stop-color="#231F20"/>
</linearGradient>
<linearGradient id="paint1_linear_445_1145" x1="1.15043" y1="52.7125" x2="44.5236" y2="10.7525" gradientUnits="userSpaceOnUse">
<stop stop-color="#C01422"/>
<stop offset="0.31" stop-color="#C01422"/>
<stop offset="0.61" stop-color="#231F20"/>
<stop offset="1" stop-color="#231F20"/>
</linearGradient>
</defs>
</svg>
